<mxfile host="app.diagrams.net" modified="2023-05-09T08:48:58.026Z" agent="5.0 (Windows NT 10.0; Win64; x64) AppleWebKit/537.36 (KHTML, like Gecko) Chrome/113.0.0.0 Safari/537.36 Edg/113.0.1774.35" etag="TSVgnUPutfo1tzm4mGLD" version="20.2.6" type="github">
  <diagram id="pvb3WGlLlU0wr4rZvQaI" name="第 1 页">
    <mxGraphModel dx="942" dy="574" grid="1" gridSize="10" guides="1" tooltips="1" connect="1" arrows="1" fold="1" page="1" pageScale="1" pageWidth="827" pageHeight="1169" math="0" shadow="0">
      <root>
        <mxCell id="0" />
        <mxCell id="1" parent="0" />
        <mxCell id="X4XQSaD7avcuDukzSl5B-1" value="Table" style="rounded=0;whiteSpace=wrap;html=1;" vertex="1" parent="1">
          <mxGeometry x="160" y="160" width="80" height="40" as="geometry" />
        </mxCell>
        <mxCell id="X4XQSaD7avcuDukzSl5B-2" value="Table" style="rounded=0;whiteSpace=wrap;html=1;" vertex="1" parent="1">
          <mxGeometry x="160" y="240" width="80" height="40" as="geometry" />
        </mxCell>
        <mxCell id="X4XQSaD7avcuDukzSl5B-3" value="Table" style="rounded=0;whiteSpace=wrap;html=1;" vertex="1" parent="1">
          <mxGeometry x="160" y="320" width="80" height="40" as="geometry" />
        </mxCell>
        <mxCell id="X4XQSaD7avcuDukzSl5B-4" value="Table" style="rounded=0;whiteSpace=wrap;html=1;" vertex="1" parent="1">
          <mxGeometry x="280" y="320" width="80" height="40" as="geometry" />
        </mxCell>
        <mxCell id="X4XQSaD7avcuDukzSl5B-6" value="我" style="ellipse;whiteSpace=wrap;html=1;" vertex="1" parent="1">
          <mxGeometry x="185" y="200" width="30" height="30" as="geometry" />
        </mxCell>
        <mxCell id="X4XQSaD7avcuDukzSl5B-9" value="领导" style="ellipse;whiteSpace=wrap;html=1;" vertex="1" parent="1">
          <mxGeometry x="175" y="280" width="50" height="30" as="geometry" />
        </mxCell>
        <mxCell id="X4XQSaD7avcuDukzSl5B-10" value="领导" style="ellipse;whiteSpace=wrap;html=1;" vertex="1" parent="1">
          <mxGeometry x="295" y="360" width="50" height="30" as="geometry" />
        </mxCell>
        <mxCell id="X4XQSaD7avcuDukzSl5B-11" value="同事" style="ellipse;whiteSpace=wrap;html=1;" vertex="1" parent="1">
          <mxGeometry x="175" y="360" width="50" height="30" as="geometry" />
        </mxCell>
        <mxCell id="X4XQSaD7avcuDukzSl5B-12" value="Table" style="rounded=0;whiteSpace=wrap;html=1;" vertex="1" parent="1">
          <mxGeometry x="280" y="240" width="80" height="40" as="geometry" />
        </mxCell>
        <mxCell id="X4XQSaD7avcuDukzSl5B-13" value="同事" style="ellipse;whiteSpace=wrap;html=1;" vertex="1" parent="1">
          <mxGeometry x="295" y="280" width="50" height="30" as="geometry" />
        </mxCell>
        <mxCell id="X4XQSaD7avcuDukzSl5B-14" value="Table" style="rounded=0;whiteSpace=wrap;html=1;" vertex="1" parent="1">
          <mxGeometry x="280" y="160" width="80" height="40" as="geometry" />
        </mxCell>
        <mxCell id="X4XQSaD7avcuDukzSl5B-15" value="同事" style="ellipse;whiteSpace=wrap;html=1;" vertex="1" parent="1">
          <mxGeometry x="295" y="200" width="50" height="30" as="geometry" />
        </mxCell>
      </root>
    </mxGraphModel>
  </diagram>
</mxfile>
